# 3ds Max Wavefront OBJ Exporter v0.97b - (c)2007 guruware
# File Created: 18.07.2018 09:41:22

#
# object Plane004
#

v  1914.8365 -9.8088 -197.9833
v  1973.2762 -9.8088 -197.9833
v  2031.7159 -9.8088 -197.9833
v  2090.1558 -9.8088 -197.9833
v  2148.5952 -9.8088 -197.9833
v  1914.8365 26.4774 -197.9833
v  1973.2762 26.4774 -197.9833
v  2031.7159 26.4774 -197.9833
v  2090.1558 26.4774 -197.9833
v  2148.5952 26.4774 -197.9833
v  1914.8365 62.7637 -197.9833
v  1973.2762 62.7637 -197.9833
v  2031.7159 62.7637 -197.9833
v  2090.1558 62.7637 -197.9833
v  2148.5952 62.7637 -197.9833
v  1914.8365 99.0500 -197.9833
v  1973.2762 99.0500 -197.9833
v  2031.7159 99.0500 -197.9833
v  2090.1558 99.0500 -197.9833
v  2148.5952 99.0500 -197.9833
v  1914.8365 135.3362 -197.9833
v  1973.2762 135.3362 -197.9833
v  2031.7159 135.3362 -197.9833
v  2090.1558 135.3362 -197.9833
v  2148.5952 135.3362 -197.9833
# 25 vertices

vn 0.0000 -0.0000 1.0000
vn 0.0000 -0.0000 1.0000
vn 0.0000 -0.0000 1.0000
vn 0.0000 -0.0000 1.0000
vn 0.0000 -0.0000 1.0000
vn 0.0000 -0.0000 1.0000
vn 0.0000 -0.0000 1.0000
vn 0.0000 -0.0000 1.0000
vn 0.0000 -0.0000 1.0000
vn 0.0000 -0.0000 1.0000
vn 0.0000 -0.0000 1.0000
vn 0.0000 -0.0000 1.0000
vn 0.0000 -0.0000 1.0000
vn 0.0000 -0.0000 1.0000
vn 0.0000 -0.0000 1.0000
vn 0.0000 -0.0000 1.0000
vn 0.0000 -0.0000 1.0000
vn 0.0000 -0.0000 1.0000
vn 0.0000 -0.0000 1.0000
vn 0.0000 -0.0000 1.0000
vn 0.0000 -0.0000 1.0000
vn 0.0000 -0.0000 1.0000
vn 0.0000 -0.0000 1.0000
vn 0.0000 -0.0000 1.0000
vn 0.0000 -0.0000 1.0000
vn 0.0000 -0.0000 1.0000
vn 0.0000 -0.0000 1.0000
vn 0.0000 -0.0000 1.0000
vn 0.0000 -0.0000 1.0000
vn 0.0000 -0.0000 1.0000
vn 0.0000 -0.0000 1.0000
vn 0.0000 -0.0000 1.0000
vn 0.0000 -0.0000 1.0000
vn 0.0000 -0.0000 1.0000
vn 0.0000 -0.0000 1.0000
vn 0.0000 -0.0000 1.0000
vn 0.0000 -0.0000 1.0000
vn 0.0000 -0.0000 1.0000
vn 0.0000 -0.0000 1.0000
vn 0.0000 -0.0000 1.0000
vn 0.0000 -0.0000 1.0000
vn 0.0000 -0.0000 1.0000
vn 0.0000 -0.0000 1.0000
vn 0.0000 -0.0000 1.0000
vn 0.0000 -0.0000 1.0000
vn 0.0000 -0.0000 1.0000
vn 0.0000 -0.0000 1.0000
vn 0.0000 -0.0000 1.0000
vn 0.0000 -0.0000 1.0000
vn 0.0000 -0.0000 1.0000
vn 0.0000 -0.0000 1.0000
vn 0.0000 -0.0000 1.0000
vn 0.0000 -0.0000 1.0000
vn 0.0000 -0.0000 1.0000
vn 0.0000 -0.0000 1.0000
vn 0.0000 -0.0000 1.0000
vn 0.0000 -0.0000 1.0000
vn 0.0000 -0.0000 1.0000
vn 0.0000 -0.0000 1.0000
vn 0.0000 -0.0000 1.0000
vn 0.0000 -0.0000 1.0000
vn 0.0000 -0.0000 1.0000
vn 0.0000 -0.0000 1.0000
vn 0.0000 -0.0000 1.0000
# 64 vertex normals

vt 0.0000 0.0000 0.0000
vt 0.2500 0.0000 0.0000
vt 0.5000 0.0000 0.0000
vt 0.7500 0.0000 0.0000
vt 1.0000 0.0000 0.0000
vt 0.0000 0.2500 0.0000
vt 0.2500 0.2500 0.0000
vt 0.5000 0.2500 0.0000
vt 0.7500 0.2500 0.0000
vt 1.0000 0.2500 0.0000
vt 0.0000 0.5000 0.0000
vt 0.2500 0.5000 0.0000
vt 0.5000 0.5000 0.0000
vt 0.7500 0.5000 0.0000
vt 1.0000 0.5000 0.0000
vt 0.0000 0.7500 0.0000
vt 0.2500 0.7500 0.0000
vt 0.5000 0.7500 0.0000
vt 0.7500 0.7500 0.0000
vt 1.0000 0.7500 0.0000
vt 0.0000 1.0000 0.0000
vt 0.2500 1.0000 0.0000
vt 0.5000 1.0000 0.0000
vt 0.7500 1.0000 0.0000
vt 1.0000 1.0000 0.0000
# 25 texture coords

o Plane004
g Plane004
s 1
f 6/6/1 1/1/2 2/2/3 7/7/4 
f 7/7/5 2/2/6 3/3/7 8/8/8 
f 8/8/9 3/3/10 4/4/11 9/9/12 
f 9/9/13 4/4/14 5/5/15 10/10/16 
f 11/11/17 6/6/18 7/7/19 12/12/20 
f 12/12/21 7/7/22 8/8/23 13/13/24 
f 13/13/25 8/8/26 9/9/27 14/14/28 
f 14/14/29 9/9/30 10/10/31 15/15/32 
f 16/16/33 11/11/34 12/12/35 17/17/36 
f 17/17/37 12/12/38 13/13/39 18/18/40 
f 18/18/41 13/13/42 14/14/43 19/19/44 
f 19/19/45 14/14/46 15/15/47 20/20/48 
f 21/21/49 16/16/50 17/17/51 22/22/52 
f 22/22/53 17/17/54 18/18/55 23/23/56 
f 23/23/57 18/18/58 19/19/59 24/24/60 
f 24/24/61 19/19/62 20/20/63 25/25/64 
# 16 polygons

#
# object Object034
#

v  1896.0552 -10.7559 -210.7607
v  1927.7385 -10.7559 -210.7607
v  1928.5967 -10.7559 -183.7085
v  1896.3695 -10.7559 -183.7693
v  1919.3691 135.4192 -190.9933
v  1905.2673 135.4192 -191.0214
v  1919.3691 82.1856 -190.9933
v  1905.2673 82.1856 -191.0215
v  1905.1299 82.1856 -203.4920
v  1918.9937 82.1856 -203.4920
v  1923.6399 80.3403 -187.7996
v  1901.1492 80.3403 -187.8420
v  1900.9301 80.3403 -206.6786
v  1923.0409 80.3403 -206.6786
v  1918.9937 135.4192 -203.4920
v  1905.1299 135.4192 -203.4920
v  1900.8976 -0.3774 -187.6277
v  1900.6732 -0.3774 -206.8936
v  1923.2882 -0.3774 -206.8936
v  1923.9009 -0.3774 -187.5843
v  1928.5626 -1.2787 -183.7367
v  1896.4023 -1.2787 -183.7973
v  1896.0889 -1.2787 -210.7325
v  1927.7062 -1.2787 -210.7325
# 24 vertices

vn 0.6983 0.0028 -0.7158
vn -0.7103 0.0028 -0.7039
vn -0.6100 0.5100 -0.6064
vn 0.5995 0.5103 -0.6165
vn 0.7149 0.0029 0.6992
vn 0.6983 0.0028 -0.7158
vn 0.5995 0.5103 -0.6165
vn 0.6141 0.5099 0.6024
vn -0.7047 0.0028 0.7095
vn 0.7149 0.0029 0.6992
vn 0.6141 0.5099 0.6024
vn -0.6052 0.5102 0.6111
vn -0.7103 0.0028 -0.7039
vn -0.7047 0.0028 0.7095
vn -0.6052 0.5102 0.6111
vn -0.6100 0.5100 -0.6064
vn -0.5462 0.6352 -0.5461
vn -0.5801 0.5769 -0.5751
vn 0.5699 0.5786 -0.5834
vn 0.5427 0.6271 -0.5588
vn 0.5427 0.6271 -0.5588
vn 0.5699 0.5786 -0.5834
vn 0.5841 0.5760 0.5719
vn 0.5466 0.6396 0.5405
vn 0.5466 0.6396 0.5405
vn 0.5841 0.5760 0.5719
vn -0.5753 0.5779 0.5789
vn -0.5454 0.6303 0.5525
vn -0.5454 0.6303 0.5525
vn -0.5753 0.5779 0.5789
vn -0.5801 0.5769 -0.5751
vn -0.5462 0.6352 -0.5461
vn -0.6441 0.4229 -0.6375
vn -0.5462 0.6352 -0.5461
vn 0.5427 0.6271 -0.5588
vn 0.6337 0.4213 -0.6488
vn 0.6337 0.4213 -0.6488
vn 0.5427 0.6271 -0.5588
vn 0.5466 0.6396 0.5405
vn 0.6480 0.4237 0.6329
vn 0.6480 0.4237 0.6329
vn 0.5466 0.6396 0.5405
vn -0.5454 0.6303 0.5525
vn -0.6393 0.4219 0.6428
vn -0.6393 0.4219 0.6428
vn -0.5454 0.6303 0.5525
vn -0.5462 0.6352 -0.5461
vn -0.6441 0.4229 -0.6375
vn -0.5753 0.5779 0.5789
vn 0.5841 0.5760 0.5719
vn 0.5699 0.5786 -0.5834
vn -0.5801 0.5769 -0.5751
vn -0.4322 0.8013 -0.4136
vn -0.6441 0.4229 -0.6375
vn 0.6337 0.4213 -0.6488
vn 0.4309 0.7950 -0.4269
vn 0.4309 0.7950 -0.4269
vn 0.6337 0.4213 -0.6488
vn 0.6480 0.4237 0.6329
vn 0.4318 0.8047 0.4076
vn 0.4318 0.8047 0.4076
vn 0.6480 0.4237 0.6329
vn -0.6393 0.4219 0.6428
vn -0.4325 0.7975 0.4207
vn -0.4325 0.7975 0.4207
vn -0.6393 0.4219 0.6428
vn -0.6441 0.4229 -0.6375
vn -0.4322 0.8013 -0.4136
vn -0.6100 0.5100 -0.6064
vn -0.4322 0.8013 -0.4136
vn 0.4309 0.7950 -0.4269
vn 0.5995 0.5103 -0.6165
vn 0.5995 0.5103 -0.6165
vn 0.4309 0.7950 -0.4269
vn 0.4318 0.8047 0.4076
vn 0.6141 0.5099 0.6024
vn 0.6141 0.5099 0.6024
vn 0.4318 0.8047 0.4076
vn -0.4325 0.7975 0.4207
vn -0.6052 0.5102 0.6111
vn -0.6052 0.5102 0.6111
vn -0.4325 0.7975 0.4207
vn -0.4322 0.8013 -0.4136
vn -0.6100 0.5100 -0.6064
# 84 vertex normals

vt 0.3250 1.0000 0.0000
vt 0.4211 1.0000 0.0000
vt 0.4211 1.0000 0.0000
vt 0.3250 1.0000 0.0000
vt 0.3250 1.0000 0.0000
vt 0.4211 1.0000 0.0000
vt 0.4211 1.0000 0.0000
vt 0.3250 1.0000 0.0000
vt 0.4211 1.0000 0.0000
vt 0.3250 1.0000 0.0000
vt 0.3250 1.0000 0.0000
vt 0.4211 1.0000 0.0000
vt 0.4211 1.0000 0.0000
vt 0.3250 1.0000 0.0000
vt 0.3250 1.0000 0.0000
vt 0.4211 1.0000 0.0000
vt 0.4211 1.0000 0.0000
vt 0.3250 1.0000 0.0000
vt 0.3250 1.0000 0.0000
vt 0.3250 1.0000 0.0000
vt 0.4211 1.0000 0.0000
vt 0.4211 1.0000 0.0000
vt 0.4211 1.0000 0.0000
vt 0.3250 1.0000 0.0000
vt 0.3250 1.0000 0.0000
vt 0.4211 1.0000 0.0000
# 26 texture coords

o Object034
g Object034
s 8
f 27/27/65 26/26/66 48/50/67 49/51/68 
s 2
f 28/28/69 27/27/70 49/51/71 46/48/72 
s 8
f 29/29/73 28/28/74 46/48/75 47/49/76 
s 2
f 26/26/77 29/29/78 47/49/79 48/50/80 
s 1
f 34/36/81 41/30/82 40/31/83 35/37/84 
s 2
f 35/37/85 40/31/86 30/32/87 32/34/88 
s 1
f 32/34/89 30/32/90 31/33/91 33/35/92 
s 2
f 33/35/93 31/33/94 41/30/95 34/36/96 
s 268435456
f 38/40/97 34/36/98 35/37/99 39/41/100 
f 39/41/101 35/37/102 32/34/103 36/38/104 
f 36/38/105 32/34/106 33/35/107 37/39/108 
f 37/39/109 33/35/110 34/36/111 38/40/112 
s off
f 31/33/113 30/32/114 40/42/115 41/43/116 
s 134217728
f 43/45/117 38/40/118 39/41/119 44/46/120 
s 2
f 44/46/121 39/41/122 36/38/123 45/47/124 
s 134217728
f 45/47/125 36/38/126 37/39/127 42/44/128 
s 2
f 42/44/129 37/39/130 38/40/131 43/45/132 
s 262145
f 48/50/133 43/45/134 44/46/135 49/51/136 
s 262144
f 49/51/137 44/46/138 45/47/139 46/48/140 
s 262145
f 46/48/141 45/47/142 42/44/143 47/49/144 
s 262144
f 47/49/145 42/44/146 43/45/147 48/50/148 
# 21 polygons

#
# object Object035
#

v  2131.9888 -10.7559 -210.7607
v  2163.6721 -10.7559 -210.7607
v  2164.5303 -10.7559 -183.7085
v  2132.3030 -10.7559 -183.7693
v  2155.3027 135.4192 -190.9933
v  2141.2009 135.4192 -191.0214
v  2155.3027 82.1856 -190.9933
v  2141.2009 82.1856 -191.0215
v  2141.0635 82.1856 -203.4920
v  2154.9272 82.1856 -203.4920
v  2159.5735 80.3403 -187.7996
v  2137.0828 80.3403 -187.8420
v  2136.8635 80.3403 -206.6786
v  2158.9744 80.3403 -206.6786
v  2154.9272 135.4192 -203.4920
v  2141.0635 135.4192 -203.4920
v  2136.8311 -0.3774 -187.6277
v  2136.6069 -0.3774 -206.8936
v  2159.2219 -0.3774 -206.8936
v  2159.8345 -0.3774 -187.5843
v  2164.4961 -1.2787 -183.7367
v  2132.3359 -1.2787 -183.7973
v  2132.0225 -1.2787 -210.7325
v  2163.6396 -1.2787 -210.7325
# 24 vertices

vn 0.6983 0.0028 -0.7158
vn -0.7103 0.0028 -0.7039
vn -0.6100 0.5100 -0.6064
vn 0.5995 0.5103 -0.6165
vn 0.7149 0.0029 0.6992
vn 0.6983 0.0028 -0.7158
vn 0.5995 0.5103 -0.6165
vn 0.6141 0.5099 0.6024
vn -0.7047 0.0028 0.7095
vn 0.7149 0.0029 0.6992
vn 0.6141 0.5099 0.6024
vn -0.6052 0.5102 0.6111
vn -0.7103 0.0028 -0.7039
vn -0.7047 0.0028 0.7095
vn -0.6052 0.5102 0.6111
vn -0.6100 0.5100 -0.6064
vn -0.5462 0.6352 -0.5461
vn -0.5801 0.5769 -0.5751
vn 0.5699 0.5786 -0.5834
vn 0.5427 0.6271 -0.5588
vn 0.5427 0.6271 -0.5588
vn 0.5699 0.5786 -0.5834
vn 0.5841 0.5760 0.5719
vn 0.5466 0.6396 0.5405
vn 0.5466 0.6396 0.5405
vn 0.5841 0.5760 0.5719
vn -0.5753 0.5779 0.5789
vn -0.5454 0.6303 0.5525
vn -0.5454 0.6303 0.5525
vn -0.5753 0.5779 0.5789
vn -0.5801 0.5769 -0.5751
vn -0.5462 0.6352 -0.5461
vn -0.6441 0.4229 -0.6375
vn -0.5462 0.6352 -0.5461
vn 0.5427 0.6271 -0.5588
vn 0.6337 0.4213 -0.6488
vn 0.6337 0.4213 -0.6488
vn 0.5427 0.6271 -0.5588
vn 0.5466 0.6396 0.5405
vn 0.6480 0.4237 0.6329
vn 0.6480 0.4237 0.6329
vn 0.5466 0.6396 0.5405
vn -0.5454 0.6303 0.5525
vn -0.6393 0.4219 0.6428
vn -0.6393 0.4219 0.6428
vn -0.5454 0.6303 0.5525
vn -0.5462 0.6352 -0.5461
vn -0.6441 0.4229 -0.6375
vn -0.5753 0.5779 0.5789
vn 0.5841 0.5760 0.5719
vn 0.5699 0.5786 -0.5834
vn -0.5801 0.5769 -0.5751
vn -0.4322 0.8013 -0.4136
vn -0.6441 0.4229 -0.6375
vn 0.6337 0.4213 -0.6488
vn 0.4309 0.7950 -0.4269
vn 0.4309 0.7950 -0.4269
vn 0.6337 0.4213 -0.6488
vn 0.6480 0.4237 0.6329
vn 0.4318 0.8047 0.4076
vn 0.4318 0.8047 0.4076
vn 0.6480 0.4237 0.6329
vn -0.6393 0.4219 0.6428
vn -0.4325 0.7975 0.4207
vn -0.4325 0.7975 0.4207
vn -0.6393 0.4219 0.6428
vn -0.6441 0.4229 -0.6375
vn -0.4322 0.8013 -0.4136
vn -0.6100 0.5100 -0.6064
vn -0.4322 0.8013 -0.4136
vn 0.4309 0.7950 -0.4269
vn 0.5995 0.5103 -0.6165
vn 0.5995 0.5103 -0.6165
vn 0.4309 0.7950 -0.4269
vn 0.4318 0.8047 0.4076
vn 0.6141 0.5099 0.6024
vn 0.6141 0.5099 0.6024
vn 0.4318 0.8047 0.4076
vn -0.4325 0.7975 0.4207
vn -0.6052 0.5102 0.6111
vn -0.6052 0.5102 0.6111
vn -0.4325 0.7975 0.4207
vn -0.4322 0.8013 -0.4136
vn -0.6100 0.5100 -0.6064
# 84 vertex normals

vt 0.3250 1.0000 0.0000
vt 0.4211 1.0000 0.0000
vt 0.4211 1.0000 0.0000
vt 0.3250 1.0000 0.0000
vt 0.3250 1.0000 0.0000
vt 0.4211 1.0000 0.0000
vt 0.4211 1.0000 0.0000
vt 0.3250 1.0000 0.0000
vt 0.4211 1.0000 0.0000
vt 0.3250 1.0000 0.0000
vt 0.3250 1.0000 0.0000
vt 0.4211 1.0000 0.0000
vt 0.4211 1.0000 0.0000
vt 0.3250 1.0000 0.0000
vt 0.3250 1.0000 0.0000
vt 0.4211 1.0000 0.0000
vt 0.4211 1.0000 0.0000
vt 0.3250 1.0000 0.0000
vt 0.3250 1.0000 0.0000
vt 0.3250 1.0000 0.0000
vt 0.4211 1.0000 0.0000
vt 0.4211 1.0000 0.0000
vt 0.4211 1.0000 0.0000
vt 0.3250 1.0000 0.0000
vt 0.3250 1.0000 0.0000
vt 0.4211 1.0000 0.0000
# 26 texture coords

o Object035
g Object035
s 8
f 51/53/149 50/52/150 72/76/151 73/77/152 
s 2
f 52/54/153 51/53/154 73/77/155 70/74/156 
s 8
f 53/55/157 52/54/158 70/74/159 71/75/160 
s 2
f 50/52/161 53/55/162 71/75/163 72/76/164 
s 1
f 58/62/165 65/56/166 64/57/167 59/63/168 
s 2
f 59/63/169 64/57/170 54/58/171 56/60/172 
s 1
f 56/60/173 54/58/174 55/59/175 57/61/176 
s 2
f 57/61/177 55/59/178 65/56/179 58/62/180 
s 268435456
f 62/66/181 58/62/182 59/63/183 63/67/184 
f 63/67/185 59/63/186 56/60/187 60/64/188 
f 60/64/189 56/60/190 57/61/191 61/65/192 
f 61/65/193 57/61/194 58/62/195 62/66/196 
s off
f 55/59/197 54/58/198 64/68/199 65/69/200 
s 134217728
f 67/71/201 62/66/202 63/67/203 68/72/204 
s 2
f 68/72/205 63/67/206 60/64/207 69/73/208 
s 134217728
f 69/73/209 60/64/210 61/65/211 66/70/212 
s 2
f 66/70/213 61/65/214 62/66/215 67/71/216 
s 262145
f 72/76/217 67/71/218 68/72/219 73/77/220 
s 262144
f 73/77/221 68/72/222 69/73/223 70/74/224 
s 262145
f 70/74/225 69/73/226 66/70/227 71/75/228 
s 262144
f 71/75/229 66/70/230 67/71/231 72/76/232 
# 21 polygons

